# xmcd
#
# Track frame offsets: 
#        150
#        1782
#        18571
#        36535
#        53031
#        70572
#        75226
#        92358
#        110467
#        125633
#        142841
#        160111
#        176778
#        192652
#        207628
#        227440
#        249776
#
# Disc length: 3541 seconds
#
# Revision: 0
# Processed by: cddbd v1.5.2PL0 Copyright (c) Steve Scherf et al.
# Submitted via: ExactAudioCopyFreeDBPlugin 1.0
#
DISCID=d40dd311
DTITLE=Brandy - Human
DYEAR=2008
DGENRE=R&B
TTITLE0=Human Intro
TTITLE1=The Definition
TTITLE2=Warm It Up (With Love)
TTITLE3=Right Here (Departed)
TTITLE4=Piano Man
TTITLE5=Long Distance Interlude
TTITLE6=Long Distance
TTITLE7=Camouflage
TTITLE8=Torn Down
TTITLE9=Human
TTITLE10=Shattered Heart
TTITLE11=True
TTITLE12=A Capella (Something's Missing)
TTITLE13=1st and Love
TTITLE14=Fall
TTITLE15=Long Distance (Mad Decent Right Mad Remix)
TTITLE16=Right Here (Departed) (Moto Blanco Radio Edit)
EXTD=
EXTT0=
EXTT1=
EXTT2=
EXTT3=
EXTT4=
EXTT5=
EXTT6=
EXTT7=
EXTT8=
EXTT9=
EXTT10=
EXTT11=
EXTT12=
EXTT13=
EXTT14=
EXTT15=
EXTT16=
PLAYORDER=
